<?xml version="1.0" standalone="no"?>
<!DOCTYPE svg PUBLIC "-//W3C//DTD SVG 20010904//EN"
 "http://www.w3.org/TR/2001/REC-SVG-20010904/DTD/svg10.dtd">
<svg version="1.0" xmlns="http://www.w3.org/2000/svg"
 width="1000.000000pt" height="1000.000000pt" viewBox="0 0 1000.000000 1000.000000"
 preserveAspectRatio="xMidYMid meet">
<metadata>
Created by potrace 1.14, written by Peter Selinger 2001-2017
</metadata>
<g transform="translate(0.000000,1000.000000) scale(0.100000,-0.100000)"
fill="#000000" stroke="none">
<path d="M4977 9554 c-1 -1 -33 -4 -72 -8 -144 -13 -234 -33 -357 -80 -109
-41 -185 -83 -538 -296 -184 -112 -400 -242 -480 -290 -80 -48 -374 -226 -655
-395 -280 -169 -523 -316 -540 -325 -16 -10 -138 -83 -270 -163 -132 -80 -411
-248 -620 -374 -209 -125 -409 -248 -445 -272 -239 -161 -438 -428 -525 -701
-69 -219 -66 -98 -63 -2245 l3 -1930 25 2 c124 8 245 15 295 18 170 9 283 17
300 20 11 2 23 4 27 4 3 1 6 812 6 1804 0 991 3 1827 7 1857 35 273 183 538
395 711 83 67 86 70 795 475 363 207 674 385 690 395 17 11 37 22 45 26 8 4
83 46 165 93 83 48 170 98 195 112 25 14 279 160 565 324 286 164 564 317 618
341 156 69 295 97 482 98 197 0 326 -26 504 -104 47 -20 577 -318 1176 -661
600 -342 1110 -634 1135 -648 316 -177 670 -385 727 -429 179 -135 314 -332
383 -557 48 -154 47 -109 48 -2011 1 -984 2 -1800 2 -1812 0 -14 6 -21 18 -21
20 1 250 -12 307 -17 22 -2 94 -7 160 -10 66 -4 131 -7 145 -8 l25 -2 0 1885
c0 1037 -3 1923 -7 1970 -16 203 -82 411 -189 600 -55 98 -203 266 -310 355
-68 56 -250 171 -634 398 -11 7 -39 24 -62 40 -23 15 -43 27 -45 27 -4 0 -192
112 -238 142 -14 9 -43 27 -66 40 -23 12 -208 124 -413 248 -204 124 -384 232
-399 241 -15 9 -193 116 -397 239 -203 123 -410 248 -460 277 -49 30 -175 106
-280 169 -104 63 -190 114 -191 114 -2 0 -57 34 -123 75 -226 140 -371 200
-576 239 -70 13 -278 28 -288 20z"/>
<path d="M4909 8129 c0 -2 -13 -44 -28 -94 l-27 -90 -80 -23 c-43 -12 -86 -25
-94 -28 -8 -3 27 -18 80 -33 l95 -26 24 -88 c14 -48 28 -87 32 -87 5 0 15 27
20 55 1 2 9 30 19 62 l18 58 85 25 c47 14 88 27 91 30 3 3 -35 16 -84 29 -99
26 -96 22 -125 141 -15 58 -24 82 -26 69z"/>
<path d="M3980 7698 c-70 -31 -291 -141 -335 -168 -27 -16 -57 -33 -65 -37 -8
-4 -67 -42 -131 -85 -606 -410 -1027 -984 -1239 -1688 -89 -296 -124 -545
-124 -880 0 -107 3 -220 7 -250 4 -30 12 -91 17 -135 53 -433 206 -862 442
-1242 42 -67 81 -128 87 -135 6 -7 35 -44 63 -83 194 -263 455 -513 739 -706
l67 -46 -1752 0 -1751 0 -3 -90 -3 -91 438 0 c241 0 443 -1 448 -1 11 -1 13
-200 3 -217 -4 -5 -187 -9 -447 -8 l-441 1 0 -89 c0 -63 3 -88 13 -89 6 0 360
-1 784 -1 l773 -1 0 -111 0 -111 -695 0 c-382 0 -696 -2 -696 -5 -4 -14 -5
-157 -1 -167 2 -8 274 -11 1075 -11 590 -1 1086 -1 1102 -1 l30 -1 -1 -85 c-1
-47 -2 -96 -3 -110 l-1 -25 -555 0 c-305 0 -556 -3 -556 -7 -4 -25 -4 -150 -1
-160 3 -10 263 -13 1253 -13 l1249 0 1 -22 c1 -23 0 -188 -1 -198 0 -3 -79 -5
-175 -5 l-175 1 -1 -30 c-1 -17 -2 -44 -3 -61 0 -16 1 -43 4 -60 l6 -30 1599
-1 c880 0 1605 3 1610 7 6 4 10 45 10 91 l0 83 -202 0 -201 0 -1 112 0 113
1247 2 1247 3 0 85 -1 85 -544 5 -544 5 -1 108 0 107 70 1 c39 0 528 0 1088 0
766 1 1017 4 1018 12 5 45 4 145 -2 157 -6 13 -88 15 -663 15 -431 0 -657 3
-659 10 -2 8 -1 145 2 196 1 14 70 16 724 17 397 0 735 1 750 1 l28 1 -3 88
-3 87 -396 0 -396 0 1 107 c1 59 5 110 9 114 4 4 182 7 397 7 l390 -1 0 89 c0
78 -2 89 -17 90 -10 0 -721 1 -1581 1 -859 1 -1561 2 -1560 3 2 2 55 40 118
85 418 301 743 679 965 1121 25 49 45 91 45 93 0 2 -37 -9 -82 -25 -153 -55
-347 -108 -493 -134 -11 -2 -33 -7 -50 -10 -140 -26 -316 -39 -525 -40 -208 0
-369 13 -510 41 -41 8 -86 17 -100 20 -383 74 -801 252 -1135 482 -288 198
-602 515 -795 803 -129 191 -216 349 -293 529 -54 129 -125 335 -143 415 -1 6
-7 28 -13 51 -10 37 -25 110 -37 174 -2 14 -6 35 -9 47 -3 12 -8 46 -11 75 -3
29 -7 55 -9 58 -9 15 -20 217 -20 380 0 172 7 316 20 400 19 120 47 274 50
280 2 4 7 22 10 41 20 113 103 358 192 567 6 14 -3 14 -37 0z"/>
<path d="M7158 6883 l-24 -88 -70 -23 c-38 -12 -80 -24 -93 -27 -40 -7 -34
-12 35 -29 113 -29 127 -37 141 -87 34 -123 41 -143 46 -129 3 8 14 50 26 94
11 43 21 80 23 81 2 2 46 16 98 32 l95 30 -45 12 c-25 7 -68 19 -97 27 l-51
15 -22 82 c-12 45 -25 86 -29 90 -5 4 -19 -32 -33 -80z"/>
<path d="M4572 6570 c-6 -19 -20 -71 -32 -115 -12 -44 -27 -85 -33 -92 -7 -6
-61 -25 -121 -42 -60 -17 -111 -33 -114 -35 -2 -3 16 -10 39 -16 24 -7 62 -18
84 -25 22 -8 57 -17 78 -20 35 -7 38 -10 53 -64 8 -31 22 -76 30 -100 8 -25
14 -52 14 -62 0 -10 4 -20 9 -23 4 -3 23 47 41 112 18 64 35 119 36 120 2 4
149 48 184 57 8 2 26 7 39 12 26 10 33 7 -154 62 l-70 20 -28 103 c-41 149
-42 150 -55 108z"/>
<path d="M1636 6428 c-38 -132 -32 -124 -105 -143 -36 -10 -77 -22 -91 -28
-24 -9 -22 -10 30 -28 30 -10 62 -19 70 -19 46 -1 63 -24 90 -119 l26 -94 27
93 c15 52 32 97 39 102 11 7 62 23 108 34 80 18 80 19 -11 47 -48 15 -91 27
-97 27 -5 0 -20 37 -32 83 -13 45 -26 88 -30 95 -3 7 -14 -16 -24 -50z"/>
<path d="M5610 5864 c-13 -47 -29 -91 -36 -98 -6 -7 -52 -23 -100 -36 l-89
-24 45 -14 c25 -7 68 -19 95 -25 l50 -12 23 -70 c12 -39 24 -81 27 -94 7 -39
12 -35 25 19 7 27 20 71 29 97 l17 47 79 21 c44 12 86 24 94 26 8 3 -14 13
-50 23 -131 35 -125 32 -142 89 -9 29 -21 71 -27 95 -6 23 -12 42 -14 42 -2 0
-14 -39 -26 -86z"/>
<path d="M7744 5329 c-3 -6 -15 -41 -24 -78 -10 -36 -31 -109 -45 -161 -15
-52 -29 -104 -32 -116 -4 -18 -33 -29 -194 -74 -104 -30 -189 -57 -189 -60 0
-4 85 -31 189 -60 l189 -53 31 -116 c18 -64 41 -147 51 -185 18 -66 40 -108
40 -76 0 8 23 96 51 196 l51 181 111 32 c62 18 119 34 127 36 89 19 179 55
140 55 -8 0 -97 23 -197 52 l-183 51 -15 56 c-25 91 -33 121 -61 216 -14 50
-26 96 -27 103 -1 15 -4 15 -13 1z"/>
<path d="M6107 4773 c-8 -32 -24 -87 -34 -123 l-18 -64 -80 -22 c-44 -12 -100
-27 -124 -34 -23 -6 -41 -14 -38 -16 3 -3 58 -20 123 -38 l117 -33 23 -79 c13
-43 28 -99 34 -124 l12 -44 12 29 c7 17 23 68 36 115 12 47 28 90 34 97 6 6
47 21 91 33 44 12 97 27 118 34 l38 13 -125 33 -126 33 -19 66 c-11 36 -27 92
-36 124 -9 31 -18 57 -19 57 -2 0 -10 -26 -19 -57z"/>
<path d="M1767 3670 c-3 -8 -15 -49 -27 -90 -60 -216 -61 -219 -94 -229 -17
-4 -91 -26 -165 -47 l-133 -38 53 -16 c58 -18 129 -39 221 -65 55 -16 58 -18
68 -58 6 -23 16 -57 21 -74 5 -18 13 -48 18 -65 5 -18 17 -59 27 -91 l17 -59
46 163 c27 94 52 165 61 170 8 5 82 27 163 50 81 24 142 45 135 49 -7 3 -76
24 -153 45 -77 21 -145 43 -151 49 -7 6 -29 70 -49 141 -55 190 -52 182 -58
165z"/>
</g>
</svg>
